<?xml version="1.0" encoding="UTF-8" standalone="no"?>
<svg width="200px" height="104px" viewBox="0 0 200 104" version="1.1" xmlns="http://www.w3.org/2000/svg" xmlns:xlink="http://www.w3.org/1999/xlink">
    <!-- Generator: Sketch 40.3 (33839) - http://www.bohemiancoding.com/sketch -->
    <title>typography_a</title>
    <desc>Created with Sketch.</desc>
    <defs>
        <path d="M0,100.08042 L22.2874126,100.08042 L31.3727273,77.793007 L73.3923077,77.793007 L82.4776224,100.08042 L105.332867,100.08042 L62.7454545,0 L42.5874126,0 L0,100.08042 Z M39.1804196,58.4867133 L52.3825175,26.2622378 L65.5846154,58.4867133 L39.1804196,58.4867133 Z M139.970629,101.5 C150.475524,101.5 157.715385,97.6671329 162.967832,91.8468531 L162.967832,100.08042 L183.835664,100.08042 L183.835664,55.9314685 C183.835664,45.7104895 181.28042,37.334965 175.602098,31.6566434 C170.207692,26.2622378 161.69021,23.1391608 149.907692,23.1391608 C136.98951,23.1391608 128.755944,25.5524476 120.38042,29.2433566 L125.774825,45.7104895 C132.730769,43.1552448 138.551049,41.5937063 146.784615,41.5937063 C157.573427,41.5937063 163.10979,46.5622378 163.10979,55.5055944 L163.10979,56.7832168 C157.715385,54.9377622 152.179021,53.6601399 144.513287,53.6601399 C126.484615,53.6601399 113.85035,61.3258741 113.85035,77.934965 L113.85035,78.2188811 C113.85035,93.2664336 125.632867,101.5 139.970629,101.5 L139.970629,101.5 Z M146.500699,86.5944056 C139.544755,86.5944056 134.718182,83.1874126 134.718182,77.3671329 L134.718182,77.0832168 C134.718182,70.2692308 140.396503,66.5783217 149.623776,66.5783217 C154.876224,66.5783217 159.702797,67.713986 163.393706,69.4174825 L163.393706,73.2503497 C163.393706,81.058042 156.57972,86.5944056 146.500699,86.5944056 L146.500699,86.5944056 Z" id="path-1"></path>
        <mask id="mask-2" maskContentUnits="userSpaceOnUse" maskUnits="objectBoundingBox" x="0" y="0" width="183.835664" height="101.5" fill="white">
            <use xlink:href="#path-1"></use>
        </mask>
    </defs>
    <g id="Page-1" stroke="none" stroke-width="1" fill="none" fill-rule="evenodd">
        <g id="typography_a" stroke="#FFFFFF" stroke-width="3">
            <use id="Aa" mask="url(#mask-2)" xlink:href="#path-1"></use>
        </g>
    </g>
</svg>