<?xml version="1.0" encoding="UTF-8" standalone="no"?>
<svg width="882px" height="501px" viewBox="0 0 882 501" version="1.1" xmlns="http://www.w3.org/2000/svg" xmlns:xlink="http://www.w3.org/1999/xlink">
    <!-- Generator: Sketch 40.3 (33839) - http://www.bohemiancoding.com/sketch -->
    <title>Desktop-Frame</title>
    <desc>Created with Sketch.</desc>
    <defs></defs>
    <g id="Page-1" stroke="none" stroke-width="1" fill="none" fill-rule="evenodd">
        <g id="Desktop-Frame" fill="#4A4A4A">
            <g id="PL-Typography,-Headings,-Text">
                <g id="Typography_Web1440x1024">
                    <g id="Group-7">
                        <g id="Group-10">
                            <path d="M807.059487,1.03700927 C805.941384,-0.152318779 804.708695,0.00666205397 804.708695,0.00666205397 L801.218449,0.00666205397 L794.856436,0.00666205397 L445.641794,0.00666205397 L434.966082,0.00666205397 L85.7521524,0.00666205397 L79.3901397,0.00666205397 L75.8998936,0.00666205397 C75.8998936,0.00666205397 74.6672047,-0.152318779 73.5491018,1.03700927 C72.9662079,1.65703452 73.0302622,3.03865366 73.0302622,3.03865366 L73.0302622,470.000186 L79.3901397,470.000186 L85.7521524,470.000186 L434.966082,470.000186 L445.641794,470.000186 L794.856436,470.000186 L801.218449,470.000186 L807.578326,470.000186 L807.578326,3.03865366 C807.578326,3.03865366 807.642381,1.65703452 807.059487,1.03700927 L807.059487,1.03700927 L807.059487,1.03700927 Z" id="Fill-1"></path>
                            <path d="M881.149242,493.832851 L881.149242,469.371757 L808.103885,469.371757 L801.744007,469.371757 L795.381994,469.371757 L446.167353,469.371757 L435.491641,469.371757 L86.2777106,469.371757 L79.9156979,469.371757 L73.5558204,469.371757 L0.5104631,469.371757 L0.5104631,493.832851 C0.5104631,493.832851 0.0272091994,496.814877 1.4769709,498.357749 C2.92744432,499.899863 5.34371382,500.619819 5.92376085,500.619819 L435.491641,500.619819 L446.167353,500.619819 L875.735232,500.619819 C876.315279,500.619819 878.732261,499.899863 880.182734,498.357749 C881.632496,496.814877 881.149242,493.832851 881.149242,493.832851" id="Page-1" fill-opacity="0.85"></path>
                        </g>
                    </g>
                </g>
            </g>
        </g>
    </g>
</svg>